External Loads File
version=1
nRows=38
nColumns=13
Range=5.000000e-03-10 seconds
endheader
time 	forceRightX 	forceRightY 	forceRightZ 	pointRightX 	pointRightY 	pointRightZ 	forceLeftX 	forceLeftY 	forceLeftZ 	pointLeftX 	pointLeftY 	pointLeftZ 		
5.005000 105.208517 920.010388 -0.000000 0.330090 0.167083 -0.146403 -55.347306 -32.807209 -0.000000 0.200296 0.488952 -0.378588
5.010000 118.445944 878.114636 -0.000000 0.322323 0.162551 -0.146031 -61.445276 -23.118745 -0.000000 0.208959 0.494150 -0.378489
5.015000 129.893190 830.514834 -0.000000 0.314338 0.158588 -0.145605 -66.681438 -10.223351 -0.000000 0.217861 0.498688 -0.378478
5.020000 138.894062 777.599864 -0.000000 0.306248 0.155209 -0.145205 -70.897692 5.411268 -0.000000 0.226796 0.502425 -0.378488
5.025000 145.654346 719.739169 -0.000000 0.297972 0.152584 -0.144807 -73.998663 23.226687 -0.000000 0.235631 0.505518 -0.378547
5.030000 150.260400 657.381204 -0.000000 0.289645 0.150538 -0.144502 -75.999512 42.618234 -0.000000 0.244459 0.507574 -0.378786
5.035000 152.721196 591.195164 -0.000000 0.281261 0.149282 -0.144393 -77.059959 63.038582 -0.000000 0.253187 0.509170 -0.379036
5.040000 152.925679 522.240147 -0.000000 0.272863 0.148883 -0.144344 -77.508430 84.025669 -0.000000 0.261801 0.509912 -0.379340
5.045000 150.613684 452.037953 -0.000000 0.264508 0.149325 -0.144397 -77.935632 105.269895 -0.000000 0.270053 0.509869 -0.379949
5.050000 146.393096 382.182823 -0.000000 0.256132 0.150499 -0.144607 -78.986495 126.904774 -0.000000 0.278163 0.509177 -0.380461
5.055000 140.728191 314.447538 -0.000000 0.247743 0.152478 -0.144980 -81.351864 149.367859 -0.000000 0.286318 0.507649 -0.380655
5.060000 133.737301 250.723140 -0.000000 0.239380 0.154998 -0.145444 -85.825462 173.155268 -0.000000 0.294140 0.504423 -0.381070
5.065000 125.907110 192.561763 -0.000000 0.230975 0.158186 -0.145799 -92.952884 198.758765 -0.000000 0.301699 0.501153 -0.381641
5.070000 117.938295 141.018355 -0.000000 0.222494 0.161850 -0.146139 -102.798991 226.557055 -0.000000 0.309197 0.496951 -0.381998
5.075000 110.166666 96.943539 -0.000000 0.214074 0.166123 -0.146524 -115.527730 256.504794 -0.000000 0.316573 0.492344 -0.382435
5.080000 103.052491 60.621277 -0.000000 0.205748 0.171027 -0.146787 -130.866029 288.434208 -0.000000 0.323796 0.486935 -0.382970
5.085000 96.900817 31.953786 -0.000000 0.197601 0.176428 -0.146935 -148.363641 321.991340 -0.000000 0.330887 0.480579 -0.383294
5.090000 91.905107 10.455795 -0.000000 0.189631 0.182554 -0.147185 -167.224579 356.792228 -0.000000 0.337893 0.473474 -0.383527
5.095000 88.135959 -4.428072 -0.000000 0.182049 0.189099 -0.147601 -187.175216 392.099650 -0.000000 0.344733 0.465969 -0.383776
5.100000 85.657805 -13.486634 -0.000000 0.174655 0.196197 -0.147710 -207.746818 427.229364 -0.000000 0.351315 0.458811 -0.383984
5.105000 84.451636 -17.721478 -0.000000 0.167800 0.203630 -0.147916 -228.005672 461.834712 -0.000000 0.357490 0.450658 -0.384041
5.110000 84.391029 -18.188469 -0.000000 0.161406 0.211496 -0.148149 -247.077820 495.798960 -0.000000 0.363632 0.442084 -0.384205
5.115000 85.276963 -15.845795 -0.000000 0.155453 0.219680 -0.148269 -264.884574 528.858734 -0.000000 0.369386 0.433058 -0.384301
5.120000 86.818279 -11.725669 -0.000000 0.150008 0.228390 -0.148378 -280.881309 561.131533 -0.000000 0.374733 0.423678 -0.384397
5.125000 88.686888 -6.765809 -0.000000 0.144939 0.237272 -0.148303 -294.595218 592.753899 -0.000000 0.379770 0.413861 -0.384430
5.130000 90.539923 -1.664740 -0.000000 0.140789 0.246444 -0.148318 -306.311679 623.475813 -0.000000 0.384348 0.403712 -0.384480
5.135000 92.028935 2.864416 -0.000000 0.137037 0.255965 -0.148278 -315.243452 653.570252 -0.000000 0.388466 0.393453 -0.384503
5.140000 92.855224 6.282813 -0.000000 0.133846 0.265801 -0.148220 -320.694423 683.288377 -0.000000 0.392043 0.382727 -0.384527
5.145000 92.759193 8.335360 -0.000000 0.131187 0.275934 -0.148281 -323.126439 712.418438 -0.000000 0.395173 0.371883 -0.384610
5.150000 91.531807 8.830135 -0.000000 0.129105 0.286226 -0.148274 -323.023336 740.882811 -0.000000 0.397703 0.360858 -0.384728
5.155000 89.036300 7.616381 -0.000000 0.127511 0.296741 -0.148342 -320.869403 768.723212 -0.000000 0.399701 0.349837 -0.384808
5.160000 85.211181 4.532112 -0.000000 0.126582 0.307610 -0.148241 -316.356023 796.390979 -0.000000 0.401235 0.338683 -0.384624
5.165000 80.020315 -0.300539 -0.000000 0.126058 0.318706 -0.148387 -310.242717 823.894076 -0.000000 0.402005 0.327501 -0.384964
5.170000 73.456663 -6.628599 -0.000000 0.126003 0.329968 -0.148531 -302.469941 851.410162 -0.000000 0.402312 0.316278 -0.385095
5.175000 65.578506 -13.957099 -0.000000 0.126463 0.341310 -0.148674 -293.172649 878.769852 -0.000000 0.402094 0.305098 -0.385238
5.180000 56.578907 -21.661077 -0.000000 0.127391 0.352767 -0.149014 -282.100885 905.715231 -0.000000 0.401244 0.294089 -0.385200
5.185000 46.841498 -29.020739 -0.000000 0.128847 0.364162 -0.149340 -269.414308 931.678825 -0.000000 0.399860 0.283286 -0.385171
5.190000 36.882388 -35.422521 -0.000000 0.130860 0.375437 -0.149779 -254.556812 956.156948 -0.000000 0.397849 0.272682 -0.385159
